<svg width="256" height="36" viewBox="0 0 256 36" fill="none" xmlns="http://www.w3.org/2000/svg">
<path fill-rule="evenodd" clip-rule="evenodd" d="M248.964 28.2545V35.0757H220.584V0.515137H248.964V7.56366H256V28.2545H248.964ZM241.693 7.79103H234.656V28.4819H241.693V7.79103ZM177.896 0.742505H206.276V7.79103H192.204V14.6122H206.276V21.4333H192.204V28.2545H206.276V35.0757H177.896V0.742505ZM156.553 35.303H142.246V7.79103H135.209V0.742505H163.589V7.79103H156.553V35.303ZM106.829 0.742505H121.136V35.303H106.829V0.742505ZM78.2147 28.2545H71.1783V21.4333H64.1419V35.303H49.8347V0.742505H64.1419V7.79103H71.1783V14.6122H78.2147V0.742505H92.5219V35.303H78.2147V28.2545ZM28.4911 35.303H7.14744V28.4819H0.111084V0.969874H14.4183V28.4819H21.4547V0.969874H35.762V28.4819H28.7256V35.303H28.4911Z" fill="white"/>
</svg>
